<svg width="97" height="48" viewBox="0 0 97 48" fill="none" xmlns="http://www.w3.org/2000/svg">
<g clip-path="url(#clip0_15208_57563)">
<path d="M39.2515 24.4365C40.7962 24.9974 41.6162 26.2933 41.6162 27.7439C41.6162 30.2003 39.9952 31.6896 36.8868 31.6896H30.5365V17.9185H36.6771C39.6329 17.9185 41.0632 19.4464 41.0632 21.4773C41.0632 22.8312 40.4529 23.8176 39.2515 24.4365ZM36.4864 20.0654H33.111V23.6629H36.4864C37.8022 23.6629 38.5078 22.9666 38.5078 21.8061C38.5078 20.7423 37.7831 20.0654 36.4864 20.0654ZM33.111 29.5233H36.7533C38.2027 29.5233 38.9845 28.8464 38.9845 27.6279C38.9845 26.3513 38.2408 25.7131 36.7533 25.7131H33.111V29.5233Z" fill="black"/>
<path d="M45.1857 31.6896H42.7829V17.9185H45.1857V31.6896Z" fill="black"/>
<path d="M53.1527 27.2992V21.7095H55.5556V31.6897H53.229V30.2391C52.4853 31.3609 51.4555 31.9218 50.1397 31.9218C48.061 31.9218 46.707 30.6452 46.707 28.3242V21.7095H49.1099V27.9181C49.1099 29.1753 49.7201 29.8135 50.9597 29.8135C52.123 29.8135 53.1527 28.9432 53.1527 27.2992Z" fill="black"/>
<path d="M66.4927 26.8738V27.4541H59.1316C59.3033 29.1755 60.2377 30.0264 61.6871 30.0264C62.7931 30.0264 63.5369 29.543 63.9373 28.5952H66.2448C65.7299 30.626 64.0136 31.9219 61.668 31.9219C60.1996 31.9219 59.0172 31.4384 58.1209 30.4907C57.2246 29.543 56.7669 28.2857 56.7669 26.6997C56.7669 25.1331 57.2056 23.8759 58.1019 22.9088C58.9982 21.9611 60.1615 21.4775 61.6298 21.4775C63.1173 21.4775 64.2997 21.9804 65.1769 22.9668C66.0541 23.9533 66.4927 25.2685 66.4927 26.8738ZM61.6108 23.373C60.2949 23.373 59.3796 24.1467 59.1507 25.752H64.0899C63.8801 24.3014 63.0029 23.373 61.6108 23.373Z" fill="black"/>
<path d="M71.8183 31.9606C68.9578 31.9606 67.4513 30.8195 67.3177 28.5178H69.6634C69.7968 29.7557 70.4071 30.2199 71.8564 30.2199C73.1532 30.2199 73.8016 29.8137 73.8016 29.0207C73.8016 28.3051 73.3439 27.9569 71.8755 27.7055L70.7504 27.5121C68.5955 27.1446 67.5275 26.1389 67.5275 24.4948C67.5275 22.6187 68.9959 21.4775 71.6085 21.4775C74.4118 21.4775 75.8612 22.5993 75.9565 24.8623H73.6871C73.6299 23.6438 72.9243 23.2183 71.6085 23.2183C70.4643 23.2183 69.8922 23.6051 69.8922 24.3787C69.8922 25.0751 70.388 25.3845 71.5322 25.5973L72.7718 25.7907C75.1555 26.2356 76.1854 27.1252 76.1854 28.8273C76.1854 30.8388 74.5835 31.9606 71.8183 31.9606Z" fill="black"/>
<path d="M86.7315 31.6896H83.9854L81.1249 27.0476L79.6375 28.5563V31.6896H77.2728V17.9185H79.6375V25.8485L83.6422 21.7094H86.5027L82.784 25.481L86.7315 31.6896Z" fill="black"/>
<path d="M93.0066 24.2239L93.808 21.7095H96.325L92.5302 32.502C92.1298 33.6045 91.6336 34.3975 91.0046 34.8423C90.3751 35.2872 89.479 35.4999 88.2965 35.4999C87.8961 35.4999 87.553 35.4806 87.2476 35.4419V33.5271H88.1632C89.2499 33.5271 89.7841 32.8501 89.7841 31.9218C89.7841 31.4576 89.6315 30.7806 89.3264 29.9102L86.4658 21.7095H89.0593L89.8601 24.2045C90.4516 26.0806 90.966 27.9374 91.4237 29.7749C91.8434 28.1889 92.3776 26.3321 93.0066 24.2239Z" fill="black"/>
</g>
<g clip-path="url(#clip1_15208_57563)">
<path d="M6.13076 14.9029C8.84447 16.9402 11.7632 21.0711 12.835 23.2877C13.9068 21.0711 16.8255 16.9402 19.5392 14.9028C21.4973 13.4329 24.67 12.2954 24.67 15.9148C24.67 16.6376 24.2555 21.987 24.0125 22.8555C23.1675 25.8748 20.0888 26.645 17.3501 26.1788C22.1372 26.9935 23.3549 29.6923 20.725 32.391C15.7301 37.5163 13.546 31.105 12.9863 29.4622C12.8837 29.161 12.8357 29.0201 12.835 29.1399C12.8343 29.0201 12.7863 29.161 12.6837 29.4622C12.124 31.105 9.93987 37.5163 4.94501 32.391C2.31502 29.6923 3.53273 26.9935 8.31989 26.1788C5.58118 26.6449 2.50242 25.8748 1.65751 22.8555C1.41443 21.987 1 16.6376 1 15.9148C1 12.2954 4.17273 13.4328 6.13076 14.9029Z" fill="black"/>
</g>
<defs>
<clipPath id="clip0_15208_57563">
<rect width="65.7884" height="17.5814" fill="white" transform="translate(30.5365 17.9185)"/>
</clipPath>
<clipPath id="clip1_15208_57563">
<rect width="23.67" height="20.8779" fill="white" transform="translate(1 13.5)"/>
</clipPath>
</defs>
</svg>
