<svg width="92" height="48" viewBox="0 0 92 48" fill="none" xmlns="http://www.w3.org/2000/svg">
<path d="M0 15.9452H0.364566C2.43622 15.9452 4.50749 15.9426 6.57915 15.9464C7.47416 15.9483 8.33902 16.0981 9.16012 16.4777C10.3711 17.0373 11.1952 17.9429 11.5873 19.217C11.9968 20.5475 11.9983 21.8821 11.4241 23.1668C10.6915 24.8054 9.3396 25.6745 7.6299 25.9739C6.82835 26.1143 5.99629 26.0897 5.17706 26.117C4.56556 26.1374 3.95292 26.1211 3.29956 26.1211V32.3399H0V15.9452ZM3.3203 23.1464C4.47884 23.1464 5.61703 23.1759 6.75295 23.1343C7.35352 23.1123 7.90845 22.8653 8.3175 22.3971C8.91585 21.713 9.01837 20.9247 8.6742 20.0994C8.32095 19.2529 7.6182 18.8605 6.7375 18.8143C5.9733 18.7742 5.20496 18.8045 4.43888 18.8038C4.07017 18.8038 3.70145 18.8038 3.3203 18.8038V23.1464Z" fill="black"/>
<path d="M24.5156 27.1091C22.9514 27.1091 21.4291 27.1091 19.9064 27.1091C18.3836 27.1091 16.885 27.1091 15.3751 27.1091C15.3416 28.2337 16.1928 29.2925 17.3939 29.6081C18.8722 29.9967 20.1404 29.646 21.1595 28.4796C21.1882 28.4468 21.2165 28.4127 21.2477 28.3824C21.2628 28.3677 21.2846 28.3597 21.3363 28.3294C22.085 28.863 22.8466 29.4053 23.6323 29.9649C22.9235 30.9174 22.0718 31.6485 21.0095 32.1204C17.0882 33.8618 12.681 31.3674 12.1453 27.1023C11.8814 25.0025 12.3609 23.1063 13.8026 21.5279C15.2507 19.9427 17.0924 19.3528 19.2051 19.5719C20.9488 19.7528 22.3825 20.51 23.4106 21.9506C24.5126 23.4948 24.7939 25.2273 24.5156 27.1083V27.1091ZM21.5573 24.7539C21.1968 23.1222 19.9354 22.2105 18.2087 22.2953C16.856 22.3619 15.6201 23.4639 15.4712 24.7539H21.5573Z" fill="black"/>
<path d="M84.855 32.6581C81.0202 32.6555 78.2722 29.9003 78.2752 26.0597C78.2775 22.3241 81.1267 19.525 84.921 19.5303C88.6867 19.5356 91.5053 22.3964 91.5 26.2096C91.4948 29.9021 88.653 32.6604 84.855 32.6581ZM84.8445 29.7538C86.8635 29.7595 88.3822 28.2231 88.4002 26.1566C88.419 24.047 86.9085 22.4406 84.897 22.4316C82.854 22.4221 81.3503 23.9653 81.3315 26.0885C81.3135 28.1804 82.8157 29.7482 84.8452 29.7542L84.8445 29.7538Z" fill="black"/>
<path d="M52.128 32.6581C48.3002 32.654 45.5153 29.8859 45.5288 26.0999C45.5428 22.3044 48.3508 19.5257 52.1684 19.5303C55.9313 19.5348 58.7234 22.3612 58.7155 26.1581C58.7075 29.9067 55.9147 32.6623 52.128 32.6581ZM52.102 29.7538C54.171 29.7557 55.6421 28.2549 55.6459 26.14C55.6496 24.0269 54.1359 22.4312 52.1276 22.4315C50.1257 22.4315 48.6041 24.0122 48.5984 26.098C48.5924 28.2251 50.056 29.7519 52.102 29.7538Z" fill="black"/>
<path d="M70.9062 32.3903H67.8502V31.9566C67.8502 29.2893 67.8502 26.6222 67.8502 23.9548C67.8502 22.8063 67.5871 22.5437 66.4383 22.5437C65.7039 22.5437 64.9695 22.5414 64.2351 22.5444C63.4132 22.5475 63.0746 22.8824 63.0739 23.7012C63.072 26.4564 63.0731 29.2116 63.0731 31.9665V32.3823H60.0035C60.0035 32.2503 60.0035 32.133 60.0035 32.0153C60.0035 29.1284 60.0013 26.2415 60.0043 23.3547C60.0066 21.2495 61.5805 19.6772 63.6832 19.6742C64.8451 19.6727 66.007 19.6735 67.1689 19.6742C69.3601 19.675 70.9062 21.2265 70.9062 23.425C70.9062 26.279 70.9062 29.133 70.9062 31.9866V32.3903Z" fill="black"/>
<path d="M33.6811 28.517H36.7801C37.1131 29.7419 37.6582 30.1922 38.9321 30.2021C39.4486 30.2063 39.9805 30.1397 40.479 30.0061C41.0536 29.8521 41.3352 29.3889 41.3329 28.8206C41.3306 28.2673 41.0845 27.8658 40.4982 27.6986C39.7969 27.4984 39.0727 27.375 38.3534 27.2448C37.4135 27.0746 36.4959 26.855 35.6419 26.4006C33.6114 25.3202 33.6065 22.7955 34.6433 21.4283C35.444 20.3718 36.5604 19.8552 37.8275 19.638C39.3951 19.369 40.9126 19.5359 42.3044 20.3483C43.4898 21.04 44.1526 22.0826 44.2309 23.5058H41.2032C40.9811 22.3119 40.2535 22.0054 39.2379 21.9796C38.8058 21.9686 38.3613 22.0175 37.9402 22.1155C37.4124 22.2385 37.1244 22.6119 37.0885 23.0793C37.0426 23.6771 37.2224 24.1048 37.7634 24.3004C38.3428 24.5097 38.9615 24.6251 39.5719 24.7307C40.6607 24.9191 41.7547 25.0716 42.7448 25.6146C44.0903 26.3525 44.5446 27.5843 44.3557 28.9969C44.1088 30.8443 42.9292 31.8857 41.2322 32.3678C39.3012 32.9165 37.4116 32.7848 35.6627 31.7116C34.5705 31.0414 33.9051 30.0553 33.683 28.7827C33.6703 28.7089 33.6811 28.631 33.6811 28.517Z" fill="black"/>
<path d="M33.0582 19.6882V22.5433C32.875 22.5433 32.693 22.5433 32.5109 22.5433C31.7765 22.5433 31.042 22.5411 30.3076 22.5441C29.4797 22.5475 29.131 22.8945 29.1302 23.7292C29.1272 26.4845 29.1291 29.2393 29.1291 31.9945C29.1291 32.1137 29.1291 32.2333 29.1291 32.3805H26.0855V32.0377C26.0855 29.1288 26.0817 26.2204 26.0867 23.3115C26.09 21.2397 27.6539 19.6814 29.7274 19.6738C30.7359 19.6701 31.7444 19.6727 32.7529 19.6738C32.849 19.6738 32.9447 19.6829 33.0582 19.6882Z" fill="black"/>
<path d="M76.4272 32.3901H73.3068V21.3242H76.4272V32.3901Z" fill="black"/>
<path d="M74.8613 19.4068C73.6979 19.4117 72.8134 18.5346 72.8187 17.3812C72.824 16.2444 73.7393 15.3143 74.8515 15.3154C75.9848 15.3166 76.9163 16.2501 76.9193 17.388C76.9223 18.5209 76.0245 19.4019 74.8613 19.4068Z" fill="black"/>
</svg>
