<svg width="104" height="48" viewBox="0 0 104 48" fill="none" xmlns="http://www.w3.org/2000/svg">
<path d="M42.0836 22.2617H45.4306C44.8728 18.7092 41.7914 16.2348 37.7804 16.2348C33.0344 16.2348 29.4749 19.7166 29.4749 25.549C29.4749 31.2754 32.875 34.828 37.8778 34.828C42.367 34.828 45.5811 31.9471 45.5811 27.2811V25.1072H38.2231V27.6699H42.4024C42.3492 30.2503 40.6226 31.8852 37.8955 31.8852C34.8584 31.8852 32.7776 29.6141 32.7776 25.5137C32.7776 21.4398 34.8938 19.1775 37.8246 19.1775C40.0117 19.1775 41.4992 20.344 42.0836 22.2617Z" fill="black"/>
<path d="M47.7932 34.5805H50.9985V21.0068H47.7932V34.5805ZM49.4048 18.8573C50.4231 18.8573 51.2553 18.0796 51.2553 17.1252C51.2553 16.162 50.4231 15.3843 49.4048 15.3843C48.3777 15.3843 47.5453 16.162 47.5453 17.1252C47.5453 18.0796 48.3777 18.8573 49.4048 18.8573Z" fill="black"/>
<path d="M60.5967 21.0067H57.9138V17.7547H54.7085V21.0067H52.7783V23.4811H54.7085V31.0279C54.691 33.5818 56.5503 34.8367 58.9587 34.766C59.8707 34.7395 60.4994 34.5627 60.8447 34.4479L60.3047 31.947C60.1276 31.9912 59.7645 32.0707 59.366 32.0707C58.5603 32.0707 57.9138 31.7879 57.9138 30.4977V23.4811H60.5967V21.0067Z" fill="black"/>
<path d="M63.0774 34.5805H74.3491V31.8321H66.3625V16.4822H63.0774V34.5805Z" fill="black"/>
<path d="M80.4879 34.8544C82.6219 34.8544 83.8969 33.8558 84.4812 32.7158H84.5875V34.5805H87.6689V25.496C87.6689 21.9081 84.7381 20.83 82.1437 20.83C79.2837 20.83 77.0877 22.1026 76.3794 24.5769L79.3723 25.0011C79.691 24.0732 80.5941 23.2779 82.1613 23.2779C83.6489 23.2779 84.4636 24.0379 84.4636 25.3723V25.4253C84.4636 26.3443 83.4983 26.3885 81.0989 26.6448C78.4601 26.9276 75.9368 27.7141 75.9368 30.7717C75.9368 33.4405 77.8936 34.8544 80.4879 34.8544ZM81.5417 32.5037C80.2046 32.5037 79.2484 31.894 79.2484 30.7187C79.2484 29.4903 80.3199 28.9778 81.7543 28.7745C82.5955 28.6596 84.2778 28.4475 84.6939 28.1117V29.7112C84.6939 31.2224 83.472 32.5037 81.5417 32.5037Z" fill="black"/>
<path d="M90.0332 34.5805H93.1853V32.4419H93.3712C93.8761 33.4316 94.9297 34.819 97.2673 34.819C100.473 34.819 102.872 32.2828 102.872 27.8113C102.872 23.2867 100.402 20.83 97.2583 20.83C94.8589 20.83 93.8583 22.2704 93.3712 23.2513H93.2386V16.4822H90.0332V34.5805ZM93.1765 27.7936C93.1765 25.1602 94.3099 23.4546 96.3729 23.4546C98.5068 23.4546 99.6049 25.2662 99.6049 27.7936C99.6049 30.3387 98.4892 32.1944 96.3729 32.1944C94.3275 32.1944 93.1765 30.427 93.1765 27.7936Z" fill="black"/>
<path d="M23.6317 22.6817L23.6003 22.5998L20.485 14.4878C20.4228 14.3289 20.3108 14.195 20.1651 14.1026C20.0198 14.0096 19.8495 13.9658 19.6767 13.9749C19.505 13.9841 19.3399 14.0467 19.2053 14.1536C19.0716 14.2615 18.9751 14.4074 18.9298 14.5721L16.8264 20.9971H8.31623L6.21283 14.5721C6.16746 14.4074 6.07095 14.2615 5.9373 14.1536C5.80265 14.0467 5.63763 13.9841 5.46585 13.9749C5.29312 13.9658 5.12275 14.0096 4.97752 14.1026C4.8318 14.195 4.71983 14.3289 4.65758 14.4878L1.5423 22.6003L1.51092 22.6817C0.587828 25.0849 1.37437 27.8016 3.43001 29.3532C3.43386 29.3557 3.43724 29.3585 3.44111 29.3614L3.46861 29.3821L8.21392 32.9277L10.561 34.7009L11.9894 35.7787C12.3334 36.0388 12.8092 36.0388 13.1532 35.7787L14.5816 34.7009L16.9282 32.9277L21.7015 29.3614C21.7058 29.3581 21.7097 29.3552 21.714 29.3518C23.7682 27.8001 24.5543 25.0844 23.6317 22.6817Z" fill="black"/>
</svg>
